:FULLY-SPECIFIED
:FORCE-ALL-JOINTS-BE-3DOF
:DEGREES
43
root 0.572134 18.2093 -13.1694 4.12954 -8.2987 -1.83865
lfemur -9.9056 2.77052 -19.0945
ltibia 65.5051 -0 0
lfoot 23.0753 1.53996 0.298509
ltoes -9.62553 0 0
rfemur -7.15464 5.76066 28.56
rtibia 23.7718 -0 0
rfoot 10.5705 1.30852 -0.512679
rtoes 13.5359 -0 0
lowerback 14.4851 -0.402849 1.64915
upperback 1.19523 -0.239121 0.358465
thorax -6.66978 -0.163078 -0.454114
lowerneck -5.44668 1.97654 -1.17742
upperneck -9.40624 2.64571 -0.336648
head -2.05368 1.36277 0.0310919
lclavicle -2.88719e-15 3.62942e-15 -3.06367e-31
lhumerus -44.5293 -13.4464 93.7639
lradius 106.059 -0 0
lwrist 28.8641 0 0
lhand -38.4527 10.4694 0.00224808
lfingers 7.12502 -0 0
lthumb -11.4758 40.1341 0.00239423
rclavicle -2.88719e-15 3.62942e-15 -3.06367e-31
rhumerus -45.1465 10.58 -86.7631
rradius 99.3264 -0 0
rwrist -3.53534 0 0
rhand -43.8127 37.1928 -0.000727667
rfingers 7.12502 -0 0
rthumb -16.6409 7.88622 -0.000709285
44
root 0.574484 18.2444 -12.6372 4.21384 -8.05374 -2.12783
lfemur -11.3496 2.09 -18.5776
ltibia 64.0784 -0 0
lfoot 22.4948 1.27165 0.309389
ltoes -9.95374 0 0
rfemur -5.50417 5.99856 28.8403
rtibia 23.4156 -0 0
rfoot 11.7132 1.07347 -0.53147
rtoes 13.8461 -0 0
lowerback 14.3922 -0.308382 1.94969
upperback 1.17251 -0.0664699 0.368546
thorax -6.63215 -0.0873005 -0.64586
lowerneck -5.56676 1.83847 -1.15572
upperneck -9.25148 2.46853 -0.251236
head -1.9833 1.27213 0.0548624
lclavicle -3.26713e-15 3.20941e-15 -3.17508e-31
lhumerus -45.435 -12.9256 93.6906
lradius 105.961 -0 0
lwrist 28.7205 0 0
lhand -38.4046 10.4938 0.00232983
lfingers 7.12502 -0 0
lthumb -11.4293 40.161 0.00248129
rclavicle -3.26713e-15 3.20941e-15 -3.17508e-31
rhumerus -44.4215 11.2653 -86.9133
rradius 99.9044 -0 0
rwrist -3.44388 0 0
rhand -43.8051 37.1431 -0.000754128
rfingers 7.12502 -0 0
rthumb -16.6336 7.83592 -0.000735077
45
root 0.576833 18.2796 -12.1051 4.29683 -7.80837 -2.41647
lfemur -12.7991 1.42272 -18.044
ltibia 62.6518 -0 0
lfoot 21.9143 1.00324 0.317551
ltoes -10.282 0 0
rfemur -3.85182 6.22832 29.1275
rtibia 23.0593 -0 0
rfoot 12.8558 0.838095 -0.545569
rtoes 14.1564 -0 0
lowerback 14.2998 -0.213429 2.25008
upperback 1.14982 0.106185 0.378558
thorax -6.59477 -0.0113975 -0.837556
lowerneck -5.6869 1.70045 -1.13374
upperneck -9.09701 2.29112 -0.166314
head -1.91295 1.18146 0.0785207
lclavicle -3.64706e-15 2.7894e-15 -3.25863e-31
lhumerus -46.3395 -12.406 93.609
lradius 105.862 -0 0
lwrist 28.5769 0 0
lhand -38.3564 10.5181 0.00239114
lfingers 7.12502 -0 0
lthumb -11.3829 40.1878 0.00254659
rclavicle -3.64706e-15 2.7894e-15 -3.25863e-31
rhumerus -43.6965 11.9525 -87.055
rradius 100.482 -0 0
rwrist -3.35241 0 0
rhand -43.7974 37.0935 -0.000773974
rfingers 7.12502 -0 0
rthumb -16.6262 7.78563 -0.000754422
46
root 0.579182 18.3148 -11.5729 4.37853 -7.56259 -2.70459
lfemur -14.2545 0.769186 -17.4937
ltibia 61.2251 -0 0
lfoot 21.3337 0.734767 0.322993
ltoes -10.6102 0 0
rfemur -2.1976 6.44975 29.4214
rtibia 22.7031 -0 0
rfoot 13.9986 0.602485 -0.554972
rtoes 14.4666 -0 0
lowerback 14.2078 -0.117993 2.55031
upperback 1.12716 0.278844 0.388502
thorax -6.55765 0.0646301 -1.0292
lowerneck -5.80707 1.56247 -1.11146
upperneck -8.94282 2.11348 -0.0818812
head -1.84265 1.09076 0.102067
lclavicle -4.027e-15 2.36938e-15 -3.31434e-31
lhumerus -47.243 -11.8878 93.5192
lradius 105.763 -0 0
lwrist 28.4333 0 0
lhand -38.3082 10.5424 0.00243202
lfingers 7.12502 -0 0
lthumb -11.3364 40.2147 0.00259012
rclavicle -4.027e-15 2.36938e-15 -3.31434e-31
rhumerus -42.9713 12.6413 -87.1882
rradius 101.06 -0 0
rwrist -3.26095 0 0
rhand -43.7898 37.0438 -0.000787205
rfingers 7.12502 -0 0
rthumb -16.6189 7.73533 -0.000767318
47
root 0.581532 18.35 -11.0407 4.45894 -7.3164 -2.99219
lfemur -15.716 0.129862 -16.9271
ltibia 59.7984 -0 0
lfoot 20.7531 0.46625 0.325714
ltoes -10.9384 0 0
rfemur -0.54155 6.66266 29.7217
rtibia 22.3468 -0 0
rfoot 15.1414 0.366734 -0.559675
rtoes 14.7769 -0 0
lowerback 14.1164 -0.0220762 2.85039
upperback 1.10453 0.451507 0.398378
thorax -6.52078 0.140781 -1.2208
lowerneck -5.9273 1.42454 -1.0889
upperneck -8.78891 1.93562 0.00206384
head -1.77238 1.00003 0.125501
lclavicle -4.40693e-15 1.94937e-15 -3.34219e-31
lhumerus -48.1456 -11.3709 93.4213
lradius 105.664 -0 0
lwrist 28.2897 0 0
lhand -38.2601 10.5667 0.00245246
lfingers 7.12502 -0 0
lthumb -11.29 40.2415 0.00261189
rclavicle -4.40693e-15 1.94937e-15 -3.34219e-31
rhumerus -42.2458 13.3317 -87.3127
rradius 101.638 -0 0
rwrist -3.16949 0 0
rhand -43.7822 36.9941 -0.00079382
rfingers 7.12502 -0 0
rthumb -16.6115 7.68503 -0.000773766
48
root 0.583881 18.3851 -10.5086 4.53806 -7.06982 -3.27929
lfemur -17.1837 -0.494772 -16.3444
ltibia 58.3717 -0 0
lfoot 20.1725 0.19772 0.325714
ltoes -11.2666 0 0
rfemur 1.11632 6.86684 30.0282
rtibia 21.9906 -0 0
rfoot 16.2841 0.130936 -0.559675
rtoes 15.0871 -0 0
lowerback 14.0255 0.0743178 3.15032
upperback 1.08193 0.624174 0.408186
thorax -6.48416 0.217056 -1.41235
lowerneck -6.04757 1.28666 -1.06604
upperneck -8.63527 1.75753 0.0855222
head -1.70215 0.909271 0.148824
lclavicle -4.78687e-15 1.52936e-15 -3.34219e-31
lhumerus -49.0476 -10.8557 93.3152
lradius 105.565 -0 0
lwrist 28.1462 0 0
lhand -38.2119 10.591 0.00245246
lfingers 7.12502 -0 0
lthumb -11.2435 40.2684 0.00261189
rclavicle -4.78687e-15 1.52936e-15 -3.34219e-31
rhumerus -41.5197 14.0236 -87.4286
rradius 102.217 -0 0
rwrist -3.07802 0 0
rhand -43.7745 36.9444 -0.00079382
rfingers 7.12502 -0 0
rthumb -16.6042 7.63474 -0.000773766
49
root 0.586231 18.4203 -9.97642 4.61589 -6.82284 -3.5659
lfemur -18.658 -1.10424 -15.7457
ltibia 56.945 -0 0
lfoot 19.5919 -0.0707969 0.322993
ltoes -11.5948 0 0
rfemur 2.77597 7.06214 30.3407
rtibia 21.6343 -0 0
rfoot 17.4269 -0.104815 -0.554972
rtoes 15.3974 -0 0
lowerback 13.9351 0.171186 3.45009
upperback 1.05936 0.796844 0.417926
thorax -6.4478 0.293452 -1.60385
lowerneck -6.16789 1.14882 -1.0429
upperneck -8.48191 1.57922 0.168495
head -1.63197 0.818484 0.172034
lclavicle -5.1668e-15 1.10935e-15 -3.31434e-31
lhumerus -49.949 -10.3422 93.2011
lradius 105.466 -0 0
lwrist 28.0026 0 0
lhand -38.1638 10.6153 0.00243202
lfingers 7.12502 -0 0
lthumb -11.1971 40.2952 0.00259012
rclavicle -5.1668e-15 1.10935e-15 -3.31434e-31
rhumerus -40.7927 14.7169 -87.5358
rradius 102.795 -0 0
rwrist -2.98656 0 0
rhand -43.7669 36.8947 -0.000787205
rfingers 7.12502 -0 0
rthumb -16.5968 7.58444 -0.000767318
50
root 0.58858 18.4555 -9.44426 4.69243 -6.57549 -3.85202
lfemur -20.1389 -1.69807 -15.1315
ltibia 55.5183 -0 0
lfoot 19.0113 -0.339272 0.317551
ltoes -11.9231 0 0
rfemur 4.43737 7.24836 30.6588
rtibia 21.2781 -0 0
rfoot 18.5697 -0.340425 -0.545569
rtoes 15.7076 -0 0
lowerback 13.8451 0.268526 3.74971
upperback 1.03681 0.969519 0.427599
thorax -6.4117 0.369969 -1.79531
lowerneck -6.28826 1.01104 -1.01947
upperneck -8.32882 1.40069 0.250983
head -1.56182 0.727669 0.195133
lclavicle -5.54674e-15 6.89334e-16 -3.25863e-31
lhumerus -50.85 -9.83044 93.079
lradius 105.367 -0 0
lwrist 27.859 0 0
lhand -38.1156 10.6396 0.00239114
lfingers 7.12502 -0 0
lthumb -11.1506 40.3221 0.00254659
rclavicle -5.54674e-15 6.89334e-16 -3.25863e-31
rhumerus -40.0648 15.4114 -87.6342
rradius 103.373 -0 0
rwrist -2.8951 0 0
rhand -43.7593 36.845 -0.000773974
rfingers 7.12502 -0 0
rthumb -16.5895 7.53414 -0.000754422
51
root 0.590929 18.4907 -8.91209 4.7677 -6.32775 -4.13767
lfemur -21.6267 -2.2758 -14.5018
ltibia 54.0917 -0 0
lfoot 18.4308 -0.607678 0.309389
ltoes -12.2513 0 0
rfemur 6.10046 7.42534 30.9824
rtibia 20.9218 -0 0
rfoot 19.7123 -0.5758 -0.53147
rtoes 16.0179 -0 0
lowerback 13.7557 0.366335 4.04918
upperback 1.0143 1.1422 0.437204
thorax -6.37585 0.446607 -1.98672
lowerneck -6.40868 0.8733 -0.995756
upperneck -8.176 1.22193 0.332988
head -1.4917 0.636825 0.21812
lclavicle -5.92667e-15 2.69321e-16 -3.17508e-31
lhumerus -51.7508 -9.32068 92.9489
lradius 105.268 -0 0
lwrist 27.7154 0 0
lhand -38.0674 10.6639 0.00232983
lfingers 7.12502 -0 0
lthumb -11.1042 40.3489 0.00248129
rclavicle -5.92667e-15 2.69321e-16 -3.17508e-31
rhumerus -39.3356 16.1071 -87.7237
rradius 103.951 -0 0
rwrist -2.80363 0 0
rhand -43.7516 36.7954 -0.000754128
rfingers 7.12502 -0 0
rthumb -16.5821 7.48385 -0.000735077
52
root 0.593279 18.5258 -8.37993 4.84169 -6.07965 -4.42286
lfemur -23.1213 -2.83695 -13.8571
ltibia 52.665 -0 0
lfoot 17.8503 -0.875988 0.298509
ltoes -12.5795 0 0
rfemur 7.76519 7.59293 31.3112
rtibia 20.5656 -0 0
rfoot 20.855 -0.810847 -0.512679
rtoes 16.3281 -0 0
lowerback 13.6668 0.46461 4.34851
upperback 0.99181 1.31488 0.446742
thorax -6.34026 0.523363 -2.17808
lowerneck -6.52915 0.735613 -0.97175
upperneck -8.02345 1.04296 0.414511
head -1.42163 0.545954 0.240995
lclavicle -6.30661e-15 -1.50692e-16 -3.06367e-31
lhumerus -52.6514 -8.813 92.811
lradius 105.17 -0 0
lwrist 27.5718 0 0
lhand -38.0193 10.6883 0.00224808
lfingers 7.12502 -0 0
lthumb -11.0577 40.3758 0.00239423
rclavicle -6.30661e-15 -1.50692e-16 -3.06367e-31
rhumerus -38.6049 16.8038 -87.8043
rradius 104.529 -0 0
rwrist -2.71217 0 0
rhand -43.744 36.7457 -0.000727667
rfingers 7.12502 -0 0
rthumb -16.5748 7.43355 -0.000709285
53
root 0.595628 18.561 -7.84777 4.9144 -5.83118 -4.70759
lfemur -24.623 -3.38107 -13.1975
ltibia 51.2383 -0 0
lfoot 17.2699 -1.14417 0.284911
ltoes -12.9077 0 0
rfemur 9.4315 7.75098 31.6449
rtibia 20.2094 -0 0
rfoot 21.9975 -1.04547 -0.489206
rtoes 16.6383 -0 0
lowerback 13.5785 0.563348 4.64768
upperback 0.96935 1.48756 0.456212
thorax -6.30492 0.600239 -2.3694
lowerneck -6.64968 0.597977 -0.947455
upperneck -7.87115 0.863777 0.495553
head -1.35159 0.455054 0.263759
lclavicle -6.68655e-15 -5.70704e-16 -2.92441e-31
lhumerus -53.5521 -8.30753 92.6651
lradius 105.071 -0 0
lwrist 27.4282 0 0
lhand -37.9711 10.7126 0.00214589
lfingers 7.12502 -0 0
lthumb -11.0113 40.4026 0.0022854
rclavicle -6.68655e-15 -5.70704e-16 -2.92441e-31
rhumerus -37.8725 17.5015 -87.8759
rradius 105.107 -0 0
rwrist -2.62071 0 0
rhand -43.7364 36.696 -0.000694591
rfingers 7.12502 -0 0
rthumb -16.5675 7.38325 -0.000677044
